<svg width="30" height="30" viewBox="0 0 30 30" fill="none" xmlns="http://www.w3.org/2000/svg">
<path d="M3.99941 14.0833H1.24988C1.00166 14.0833 0.786856 14.1741 0.605463 14.3555C0.424069 14.5369 0.333374 14.7517 0.333374 15C0.333374 15.2483 0.424069 15.4631 0.605463 15.6445C0.786856 15.826 1.00166 15.9167 1.24988 15.9167H3.99941C4.24763 15.9167 4.46244 15.826 4.64383 15.6445C4.82522 15.4631 4.91592 15.2483 4.91592 15C4.91592 14.7517 4.82522 14.5369 4.64383 14.3555C4.46244 14.1741 4.24763 14.0833 3.99941 14.0833ZM23.8189 7.46616L25.7379 5.54688C25.9097 5.35591 25.9956 5.1363 25.9956 4.88803C25.9956 4.63977 25.9097 4.4297 25.7379 4.25782C25.566 4.08595 25.356 4.00001 25.1078 4.00001C24.8595 4.00001 24.64 4.08595 24.449 4.25782L22.5301 6.17709C22.3582 6.34897 22.2723 6.56381 22.2723 6.82162C22.2723 7.07944 22.3582 7.29428 22.5301 7.46616C22.7019 7.63803 22.9167 7.72397 23.1745 7.72397C23.4323 7.72397 23.6471 7.63803 23.8189 7.46616ZM6.57709 7.8672C6.74894 8.03907 6.96374 8.12501 7.22151 8.12501C7.47928 8.12501 7.69409 8.03907 7.86593 7.8672C8.03778 7.69532 8.1237 7.48048 8.1237 7.22267C8.1237 6.96485 8.03778 6.75001 7.86593 6.57814L5.91835 4.63022C5.74651 4.45834 5.5317 4.37241 5.27393 4.37241C5.01616 4.37241 4.80136 4.45834 4.62951 4.63022C4.45766 4.80209 4.37174 5.01694 4.37174 5.27475C4.37174 5.53256 4.45766 5.74741 4.62951 5.91928L6.57709 7.8672ZM14.9975 4.91668C15.2457 4.91668 15.4605 4.82597 15.6419 4.64454C15.8233 4.46312 15.914 4.24828 15.914 4.00001V1.25001C15.914 1.00174 15.8233 0.786903 15.6419 0.605479C15.4605 0.424054 15.2457 0.333344 14.9975 0.333344C14.7493 0.333344 14.5345 0.424054 14.3531 0.605479C14.1717 0.786903 14.081 1.00174 14.081 1.25001V4.00001C14.081 4.24828 14.1717 4.46312 14.3531 4.64454C14.5345 4.82597 14.7493 4.91668 14.9975 4.91668ZM23.4179 22.1328C23.2461 21.9609 23.0313 21.875 22.7735 21.875C22.5158 21.875 22.301 21.9609 22.1291 22.1328C21.9573 22.3047 21.8713 22.5195 21.8713 22.7774C21.8713 23.0352 21.9573 23.25 22.1291 23.4219L24.0767 25.3698C24.2485 25.5417 24.4633 25.6276 24.7211 25.6276C24.9789 25.6276 25.1937 25.5417 25.3655 25.3698C25.5374 25.1979 25.6233 24.9831 25.6233 24.7253C25.6233 24.4675 25.5374 24.2526 25.3655 24.0807L23.4179 22.1328ZM14.9975 6.75001C13.8519 6.75001 12.7779 6.96485 11.7754 7.39454C10.773 7.82423 9.89944 8.41146 9.15478 9.15626C8.41011 9.90106 7.82298 10.7747 7.39336 11.7774C6.96374 12.78 6.74894 13.8542 6.74894 15C6.74894 16.1458 6.96374 17.2201 7.39336 18.2227C7.82298 19.2253 8.41011 20.099 9.15478 20.8438C9.89944 21.5886 10.773 22.1758 11.7754 22.6055C12.7779 23.0352 13.8519 23.25 14.9975 23.25C16.1432 23.25 17.2172 23.0352 18.2196 22.6055C19.2221 22.1758 20.0956 21.5886 20.8403 20.8438C21.5849 20.099 22.1721 19.2253 22.6017 18.2227C23.0313 17.2201 23.2461 16.1458 23.2461 15C23.2461 13.8542 23.0313 12.78 22.6017 11.7774C22.1721 10.7747 21.5849 9.90106 20.8403 9.15626C20.0956 8.41146 19.2221 7.82423 18.2196 7.39454C17.2172 6.96485 16.1432 6.75001 14.9975 6.75001ZM14.9975 21.4167C14.1192 21.4167 13.2886 21.2496 12.5058 20.9154C11.7229 20.5812 11.0403 20.1228 10.4579 19.5404C9.87557 18.9579 9.41732 18.2752 9.08317 17.4922C8.74903 16.7092 8.58196 15.8785 8.58196 15C8.58196 14.1215 8.74903 13.2908 9.08317 12.5078C9.41732 11.7248 9.87557 11.0421 10.4579 10.4596C11.0403 9.87718 11.7229 9.41885 12.5058 9.08465C13.2886 8.75044 14.1192 8.58334 14.9975 8.58334C15.8758 8.58334 16.7064 8.75044 17.4893 9.08465C18.2721 9.41885 18.9547 9.87718 19.5371 10.4596C20.1195 11.0421 20.5777 11.7248 20.9119 12.5078C21.246 13.2908 21.4131 14.1215 21.4131 15C21.4131 15.8785 21.246 16.7092 20.9119 17.4922C20.5777 18.2752 20.1195 18.9579 19.5371 19.5404C18.9547 20.1228 18.2721 20.5812 17.4893 20.9154C16.7064 21.2496 15.8758 21.4167 14.9975 21.4167ZM7.12127 21.5886L5.20233 23.5078C5.03048 23.6988 4.94456 23.9184 4.94456 24.1667C4.94456 24.4149 5.03048 24.625 5.20233 24.7969C5.37418 24.9688 5.58421 25.0547 5.83243 25.0547C6.08065 25.0547 6.30023 24.9688 6.49117 24.7969L8.41011 22.8776C8.58196 22.7057 8.66788 22.4909 8.66788 22.2331C8.66788 21.9753 8.58196 21.7604 8.41011 21.5886C8.23827 21.4167 8.02346 21.3307 7.76569 21.3307C7.50792 21.3307 7.29312 21.4167 7.12127 21.5886ZM28.7452 14.0833H25.9956C25.7474 14.0833 25.5326 14.1741 25.3512 14.3555C25.1698 14.5369 25.0791 14.7517 25.0791 15C25.0791 15.2483 25.1698 15.4631 25.3512 15.6445C25.5326 15.826 25.7474 15.9167 25.9956 15.9167H28.7452C28.9934 15.9167 29.2082 15.826 29.3896 15.6445C29.571 15.4631 29.6617 15.2483 29.6617 15C29.6617 14.7517 29.571 14.5369 29.3896 14.3555C29.2082 14.1741 28.9934 14.0833 28.7452 14.0833ZM14.9975 25.0833C14.7493 25.0833 14.5345 25.1741 14.3531 25.3555C14.1717 25.5369 14.081 25.7517 14.081 26V28.75C14.081 28.9983 14.1717 29.2131 14.3531 29.3945C14.5345 29.576 14.7493 29.6667 14.9975 29.6667C15.2457 29.6667 15.4605 29.576 15.6419 29.3945C15.8233 29.2131 15.914 28.9983 15.914 28.75V26C15.914 25.7517 15.8233 25.5369 15.6419 25.3555C15.4605 25.1741 15.2457 25.0833 14.9975 25.0833Z" fill="#1E1E1E"/>
</svg>
